PathFileType	3	(X/Y/Z)	D:\minhoCalibration\240510\subject4_KPNP\preferred\preferred05.trc
DataRate	CameraRate	NumFrames	NumMarkers	Units	OrigDataRate	OrigDataStartFrame	OrigNumFrames
200.0	200.0	15	10	mm	200.0	283	88	
Frame#	Time	Left_Ankle_Outer1			Left_Ankle_Inner1			Left_Knee_Outer1			Left_Knee_Inner1			Left_Wrist1			Right_Wrist1			Right_Knee_Inner1			Right_Knee_Outer1			Right_Ankle_Inner1			Right_Ankle_Outer1			
		X1	Y1	Z1	X2	Y2	Z2	X3	Y3	Z3	X4	Y4	Z4	X5	Y5	Z5	X6	Y6	Z6	X7	Y7	Z7	X8	Y8	Z8	X9	Y9	Z9	X10	Y10	Z10	
283	1.405	-390.53192	1192.4467	305.3916	-416.69495	1093.5927	298.18845	-279.4234	1091.084	790.69269	-313.32584	992.65454	768.6709	-371.95419	1212.8448	1173.4893	-396.07083	913.65497	1398.8539	-269.04507	558.05585	1103.7299	-255.81786	563.4021	1215.7988	-489.30341	131.55733	1179.8776	-467.16669	136.92584	1231.7599
284	1.41	-389.08179	1197.4335	305.22757	-422.31961	1098.661	301.47583	-279.42697	1099.0032	786.28064	-315.09207	998.59503	764.46985	-374.90796	1213.9417	1171.0941	-393.64539	914.35486	1396.0172	-269.35916	557.125	1100.5387	-256.58746	562.68182	1212.7054	-490.01984	130.61455	1179.9005	-467.29633	136.47943	1231.5266
285	1.415	-396.09619	1198.2345	304.72397	-426.33237	1097.311	302.875	-275.41312	1102.0631	783.53168	-305.18573	1002.8186	760.3974	-377.81326	1214.7155	1167.8141	-390.87769	915.21344	1392.5071	-270.29941	555.79089	1097.6278	-257.41592	561.97455	1209.2996	-490.285	130.12086	1180.2739	-466.99594	136.20628	1231.8179
286	1.42	-408.65106	1193.2922	303.10068	-424.45258	1089.9229	302.45151	-270.23401	1104.7588	781.71051	-293.71396	1006.8711	758.02026	-381.09348	1215.3713	1164.1439	-387.91702	915.96484	1389.2177	-270.34711	554.35883	1094.0381	-258.09543	561.3136	1205.6125	-490.32172	129.61377	1181.0334	-466.22998	136.05238	1232.2235
287	1.425	-423.8887	1184.3977	302.40839	-420.85352	1080.0784	300.40457	-264.85751	1106.1641	781.79199	-285.31567	1013.3246	757.70874	-384.621	1215.5858	1160.1257	-384.89417	916.49689	1385.5532	-270.85339	553.20337	1090.667	-258.71497	560.85425	1201.4657	-490.68082	129.25119	1182.2783	-465.32471	135.94902	1232.592
288	1.43	-436.94077	1174.2981	302.72577	-416.31714	1071.3881	298.34335	-260.31598	1106.6699	783.54425	-279.64755	1020.3525	758.22266	-388.76685	1215.668	1156.0587	-381.91782	916.88086	1381.7455	-271.13867	552.2041	1086.7103	-259.01666	560.5993	1197.4302	-490.85605	128.70058	1183.0236	-464.6001	135.93648	1232.8629
289	1.435	-443.60138	1165.6381	301.62607	-414.06961	1063.646	294.10519	-258.72644	1107.0994	785.24365	-277.1199	1026.8248	759.27246	-393.08606	1215.3577	1151.8744	-379.08472	916.95502	1378.0374	-272.18805	551.22607	1082.7655	-259.20193	560.48157	1193.1993	-491.24609	128.31586	1183.3658	-463.95984	136.0195	1232.8279
290	1.44	-448.70633	1156.0898	299.03134	-413.91626	1055.7031	293.23355	-260.80261	1109.9622	786.40625	-277.82156	1032.5697	759.41229	-398.36194	1214.8268	1148.0405	-376.41382	916.68579	1374.2336	-273.55679	550.57623	1078.6663	-259.46011	560.53979	1188.9087	-491.46054	128.06996	1183.1396	-463.62427	136.23621	1232.5216
291	1.445	-453.10443	1146.9255	295.71198	-412.34421	1048.718	290.9003	-265.4118	1118.6241	785.71362	-280.09875	1037.8156	758.6629	-403.30759	1214.3923	1144.3025	-374.01627	916.23462	1370.2284	-274.89008	550.4707	1074.2051	-259.7359	560.61871	1184.5146	-492.3316	128.01833	1182.9813	-463.54156	136.5321	1231.7375
292	1.45	-456.11688	1137.2954	291.86618	-410.6741	1041.7843	288.85635	-271.88901	1128.9961	785.28461	-282.4726	1043.0105	758.24115	-408.15414	1213.9783	1140.902	-371.95929	915.39508	1366.2059	-277.16705	550.12384	1070.0673	-259.86694	560.65906	1180.2776	-493.27856	127.88724	1182.1852	-463.83856	136.98947	1230.4874
293	1.455	-458.52368	1127.5237	288.3844	-407.77933	1033.8575	285.48389	-280.91	1138.2981	783.49994	-282.56961	1048.2222	757.75189	-413.05682	1213.8479	1137.7887	-370.36169	914.29346	1361.8024	-279.30051	549.90686	1065.7223	-260.09561	560.49701	1175.921	-494.72272	128.04655	1180.6873	-464.34726	137.46107	1228.6842
294	1.46	-459.97794	1117.0244	285.16962	-405.42694	1026.0654	286.44095	-292.0936	1146.589	780.30865	-281.69232	1053.8258	757.51886	-417.67264	1213.5815	1135.0643	-369.1167	913.06073	1357.0018	-281.2659	549.74481	1061.2642	-260.50464	559.94586	1171.1819	-496.0538	128.15569	1178.7236	-465.2941	137.98488	1226.2677
295	1.465	-461.90427	1105.2682	282.71597	-395.97031	1020.5128	286.16611	-305.76596	1152.3961	775.65948	-280.73697	1060.0491	757.02209	-422.36703	1213.698	1133.2036	-367.85995	911.70197	1351.6903	-283.77069	549.66907	1057.1343	-260.52808	559.46039	1166.8112	-498.2684	128.46103	1175.7096	-466.6405	138.47902	1223.2988
296	1.47	-462.03021	1090.9347	279.91211	-385.06174	1014.2023	286.15332	-319.45505	1155.5009	771.02643	-280.08395	1066.7559	756.48749	-426.62018	1214.0078	1131.7649	-366.42725	910.3136	1346.2551	-285.65927	549.71912	1052.7948	-260.54803	558.58649	1161.9646	-499.84436	128.52136	1172.6445	-468.2774	138.93893	1219.7786
297	1.475	-463.1051	1076.21	278.28574	-376.33005	1008.6588	287.27585	-332.07126	1156.6224	767.31775	-279.96011	1073.5795	755.90161	-431.02393	1214.6443	1131.4327	-364.64169	908.78491	1340.6322	-287.98727	549.93439	1048.7917	-260.58148	557.75867	1157.2639	-501.63425	128.59781	1168.7462	-470.18881	139.33755	1216.1042
